<?xml version="1.0" standalone="no"?>
<!DOCTYPE svg PUBLIC "-//W3C//DTD SVG 20010904//EN"
 "http://www.w3.org/TR/2001/REC-SVG-20010904/DTD/svg10.dtd">
<svg version="1.0" xmlns="http://www.w3.org/2000/svg"
 width="491.000000pt" height="491.000000pt" viewBox="0 0 491.000000 491.000000"
 preserveAspectRatio="xMidYMid meet">
<metadata>
Created by potrace 1.11, written by Peter Selinger 2001-2013
</metadata>
<g transform="translate(0.000000,491.000000) scale(0.100000,-0.100000)"
fill="#000000" stroke="none">
<path d="M1980 3975 c-454 -77 -846 -367 -1055 -784 -50 -100 -110 -286 -129
-400 -21 -124 -21 -368 0 -492 77 -461 382 -863 807 -1064 201 -95 332 -125
577 -132 210 -6 305 6 474 58 284 88 549 275 731 518 63 83 152 245 194 351
12 30 38 75 59 99 l37 43 137 -175 c157 -200 187 -228 258 -235 105 -10 185
62 185 168 0 71 -8 84 -194 318 -83 105 -151 193 -151 197 0 3 68 91 150 195
83 104 157 205 165 224 62 148 -101 292 -240 213 -27 -15 -83 -77 -175 -194
-85 -108 -138 -167 -142 -159 -4 7 -16 58 -27 113 -105 515 -488 938 -987
1092 -55 17 -139 37 -188 46 -108 18 -378 19 -486 0z m916 -511 c71 -34 99
-134 58 -205 -11 -20 -38 -43 -64 -56 -43 -23 -51 -23 -387 -23 l-343 0 0
-175 0 -175 238 0 c212 0 241 -2 279 -20 101 -45 112 -176 21 -242 -32 -22
-40 -23 -285 -26 l-253 -3 0 -219 0 -219 381 -3 380 -3 38 -41 c52 -55 60
-101 29 -162 -46 -92 -16 -87 -546 -90 -524 -3 -528 -3 -580 66 l-27 35 -3
732 -2 731 23 35 c12 18 38 44 56 56 l34 23 459 0 c402 0 464 -2 494 -16z
m459 -393 c54 -24 286 -321 297 -379 21 -114 1 -361 -44 -525 -19 -73 -29 -91
-127 -216 -143 -182 -192 -209 -291 -158 -52 26 -90 83 -90 137 0 50 28 93
203 312 87 107 157 198 157 200 0 3 -67 92 -150 199 -82 106 -157 209 -166
228 -35 73 3 167 80 202 51 23 80 23 131 0z"/>
</g>
</svg>
